<svg width="1760" height="985" viewBox="0 0 1760 985" fill="none" xmlns="http://www.w3.org/2000/svg">
<g opacity="0.26" filter="url(#filter0_f_8272_14438)">
<path d="M1543.19 399.046C1494.54 508.599 1348.02 621.687 1231.4 680.528C1062.44 765.777 824.436 807.055 602.601 771.725C483.304 752.739 370.509 711.517 294.209 652.15C104.219 504.333 213.64 259.927 532.35 236.57C613.322 230.64 699.434 243.743 768.612 272.538C831.956 298.904 883.597 338.386 956.648 351.463C1129 382.396 1187.82 266.153 1297.05 220.714C1339.1 203.242 1394.76 194.396 1444.96 205.149C1502.49 217.462 1540.78 252.982 1553.12 288.641C1565.2 323.416 1560.13 361.014 1543.19 399.046Z" fill="#8785FF"/>
</g>
<defs>
<filter id="filter0_f_8272_14438" x="0.68457" y="0.466797" width="1759.07" height="983.911" filterUnits="userSpaceOnUse" color-interpolation-filters="sRGB">
<feFlood flood-opacity="0" result="BackgroundImageFix"/>
<feBlend mode="normal" in="SourceGraphic" in2="BackgroundImageFix" result="shape"/>
<feGaussianBlur stdDeviation="100" result="effect1_foregroundBlur_8272_14438"/>
</filter>
</defs>
</svg>
