<?xml version="1.0" encoding="utf-8"?><svg fill="none" height="26" viewBox="0 0 26 26" width="26" xmlns="http://www.w3.org/2000/svg"><g stroke="#000ee6" stroke-linecap="round" stroke-linejoin="round" stroke-width="1.5"><path clip-rule="evenodd" d="m18.6875 25.1875c3.5899 0 6.5-2.9101 6.5-6.5s-2.9101-6.5-6.5-6.5-6.5 2.9101-6.5 6.5 2.9101 6.5 6.5 6.5z" fill-rule="evenodd"/><path d="m18.6875 15.4375v4.0625h2.2057"/><path d="m21.125 6.50001v-4.47634c-.006-.67192-.5533-1.212975-1.2252-1.211162h-17.86855c-.6686-.002407-1.213386.536082-1.21875 1.204662v14.64563c.005952.6721.55312 1.2134 1.22525 1.2122h6.89975"/><path d="m.8125 4.875h20.3125"/><path d="m11.9556 11.375 2.4375-1.625"/><path d="m24.9556 11.375-2.4375-1.625"/></g></svg>