<?xml version="1.0" encoding="utf-8"?><svg fill="none" height="26" viewBox="0 0 26 26" width="26" xmlns="http://www.w3.org/2000/svg"><g stroke="#000ee6" stroke-linecap="round" stroke-linejoin="round" stroke-width="1.5"><path d="m.8125 16.25v5.6875l5.6875 3.25 4.0625-2.3216"/><path d="m6.5 25.1875v-5.6875"/><path clip-rule="evenodd" d="m19.5 13-5.6875 3.25 5.6875 3.25 5.6875-3.25z" fill-rule="evenodd"/><path d="m13.8125 16.25v5.6875l5.6875 3.25 5.6875-3.25v-5.6875"/><path d="m19.5 19.5v5.6875"/><path clip-rule="evenodd" d="m13 .8125-5.6875 3.25 5.6875 3.25 5.6875-3.25z" fill-rule="evenodd"/><path d="m7.3125 4.0625v5.6875l5.6875 3.25 5.6875-3.25v-5.6875"/><path d="m13 7.3125v5.6875"/><path d="m10.5625 15.3216-4.0625-2.3216-5.6875 3.25 5.6875 3.25 3.25-1.8568"/></g></svg>