<?xml version="1.0" encoding="utf-8"?><svg fill="none" height="26" viewBox="0 0 26 26" width="26" xmlns="http://www.w3.org/2000/svg"><path clip-rule="evenodd" d="m5.95831 25.1843 4.38969-10.2419c.1072-.251.0814-.5391-.0688-.7671s-.40465-.3655-.67764-.366h-3.20992c-.27391.001-.52986-.1362-.68059-.365-.15073-.2287-.17589-.518-.06691-.7693l4.97246-11.375c.1292-.29596.4214-.487334.7443-.4875h8.3417c.3124.000112.597.179321.7322.46096.1351.28165.0969.61584-.0985.85962l-4.3875 5.48492c-.1948.24395-.2326.57794-.0973.85926.1354.28132.42.46021.7321.46024h3.6639c.3289-.00015.6254.19798.7511.50187.1258.3039.0559.65363-.177.88593z" fill-rule="evenodd" stroke="#000ee6" stroke-linejoin="round" stroke-width="1.5"/></svg>