<?xml version="1.0" encoding="utf-8"?><svg fill="none" height="26" viewBox="0 0 26 26" width="26" xmlns="http://www.w3.org/2000/svg"><g style="fill-rule:evenodd;clip-rule:evenodd;stroke:#000ee6;stroke-width:1.5;stroke-linecap:round;stroke-linejoin:round"><path d="m11.375 13.5698c.0012.5847-.4715 1.0599-1.0562 1.0617h-8.45005c-.28089-.0006-.55004-.1128-.74816-.3119-.198115-.1992-.308948-.4689-.308085-.7498v-11.68916c-.000575-.281.110499-.55072.308785-.74982.19829-.1991.46755-.311276.74855-.31185l8.44996.014083c.5843.002389 1.0564.477367 1.0552 1.061667z"/><path d="m25.1831 7.08933c-.0042.57934-.4769 1.04577-1.0562 1.04217h-8.45c-.2784.00202-.5461-.10669-.7442-.30216-.1981-.19548-.3104-.4617-.3121-.74001v-5.21408c.0036-.57874.4753-1.045169 1.0541-1.042169l8.45-.014083c.5799-.004205 1.0536.462222 1.0584 1.042162z"/><path d="m11.375 24.1486c-.0017.279-.1142.5458-.3127.7419-.1985.196-.4667.3052-.7457.3035l-8.45002-.0141c-.57934.0024-1.051096-.465-1.05408-1.0443v-5.2098c.001432-.2786.113556-.5452.31167-.7411.19812-.1958.46598-.3049.74458-.3032h8.44995c.58-.003 1.0527.4644 1.0563 1.0443z"/><path d="m15.6779 25.194c-.2811-.0006-.5506-.1129-.7489-.3123-.1983-.1993-.3093-.4693-.3084-.7505v-11.687c-.0009-.281.1099-.5508.308-.7501s.4673-.3118.7483-.3126h8.45c.281.0008.5501.1133.7482.3126s.3089.4691.308.7501v11.6729c.0012.5845-.4707 1.0598-1.0552 1.0628z"/></g></svg>