<?xml version="1.0" encoding="utf-8"?><svg fill="none" height="26" viewBox="0 0 26 26" width="26" xmlns="http://www.w3.org/2000/svg"><g stroke="#000ee6" stroke-linecap="round" stroke-linejoin="round" stroke-width="1.5"><path d="m20.463 10.6309c-.0003 3.7574-2.1451 7.1851-5.524 8.8285-3.379 1.6434-7.39957 1.2142-10.3555-1.1055"/><path d="m.866637 11.517c-.026-.2889-.039-.5843-.039-.8862-.000601-3.94883 2.364843-7.51367 6.003553-9.04765 3.63871-1.5339799 7.84231-.738483 10.66891 2.01899"/><path d="m17.5879 17.5729 7.5996 7.6147"/><path d="m25.1876 6.84775v-5.22275h-5.2076"/><path d="m.8125 17.875 9.01333-9.01008c.40087-.39986 1.04977-.39986 1.45057 0l2.6498 2.65088c.1923.1926.4532.3008.7253.3008.2722 0 .5331-.1082.7253-.3008l9.8107-9.8908"/></g></svg>