<?xml version="1.0" encoding="utf-8"?><svg fill="none" height="26" viewBox="0 0 26 26" width="26" xmlns="http://www.w3.org/2000/svg"><g stroke="#000ee6" stroke-linecap="round" stroke-linejoin="round" stroke-width="1.5"><path clip-rule="evenodd" d="m5.6875 18.6875c1.79493 0 3.25-1.4551 3.25-3.25s-1.45507-3.25-3.25-3.25-3.25 1.4551-3.25 3.25 1.45507 3.25 3.25 3.25z" fill-rule="evenodd"/><path d="m.8125 25.1875c0-2.6924 2.18261-4.875 4.875-4.875s4.875 2.1826 4.875 4.875"/><path d="m23.1282 13.8125c.6811 1.1833.5501 2.6662-.328 3.7117-.8782 1.0454-2.3161 1.4306-3.5993.964-1.2831-.4665-2.1379-1.6854-2.1394-3.0507"/><path d="m15.4375 25.1875c0-2.6924 2.1826-4.875 4.875-4.875s4.875 2.1826 4.875 4.875"/><path clip-rule="evenodd" d="m8.9375 10.5625h3.25v4.875l4.875-4.875h4.875v-9.75h-13z" fill-rule="evenodd"/><path d="m12.1875 4.0625h6.5"/><path d="m12.1875 7.3125h6.5"/></g></svg>