<svg width="1760" height="985" viewBox="0 0 1760 985" fill="none" xmlns="http://www.w3.org/2000/svg">
<g opacity="0.4" filter="url(#filter0_f_8272_17434)">
<path d="M1543.19 399.046C1494.54 508.599 1348.02 621.687 1231.4 680.528C1062.44 765.777 824.436 807.055 602.602 771.725C483.305 752.739 370.51 711.517 294.21 652.15C104.22 504.333 213.64 259.927 532.35 236.57C613.323 230.64 699.434 243.743 768.613 272.538C831.957 298.904 883.597 338.386 956.648 351.463C1129 382.396 1187.82 266.153 1297.05 220.714C1339.1 203.242 1394.76 194.396 1444.96 205.149C1502.5 217.462 1540.78 252.982 1553.12 288.641C1565.2 323.416 1560.13 361.014 1543.19 399.046Z" fill="url(#paint0_linear_8272_17434)"/>
</g>
<defs>
<filter id="filter0_f_8272_17434" x="0.684937" y="0.466797" width="1759.07" height="983.911" filterUnits="userSpaceOnUse" color-interpolation-filters="sRGB">
<feFlood flood-opacity="0" result="BackgroundImageFix"/>
<feBlend mode="normal" in="SourceGraphic" in2="BackgroundImageFix" result="shape"/>
<feGaussianBlur stdDeviation="100" result="effect1_foregroundBlur_8272_17434"/>
</filter>
<linearGradient id="paint0_linear_8272_17434" x1="5175.77" y1="186.158" x2="-3021.13" y2="4352.29" gradientUnits="userSpaceOnUse">
<stop offset="0.357373" stop-color="#B4B4FF"/>
<stop offset="0.424" stop-color="#FFC269"/>
<stop offset="0.507464" stop-color="#8DD4FF"/>
</linearGradient>
</defs>
</svg>
