<?xml version="1.0" encoding="UTF-8"?><svg width="24" height="24" viewBox="0 0 24 24" fill="none" xmlns="http://www.w3.org/2000/svg">
<path d="M15.75 5.25L13.5 12.75H7.5L6 8.25H14.85" stroke="#030EDD" stroke-width="1.5" stroke-linecap="round" stroke-linejoin="round"/>
<path d="M7.875 15C8.08211 15 8.25 15.1679 8.25 15.375C8.25 15.5821 8.08211 15.75 7.875 15.75C7.66789 15.75 7.5 15.5821 7.5 15.375C7.5 15.1679 7.66789 15 7.875 15" stroke="#030EDD" stroke-width="1.5" stroke-linecap="round" stroke-linejoin="round"/>
<path d="M13.125 15C13.3321 15 13.5 15.1679 13.5 15.375C13.5 15.5821 13.3321 15.75 13.125 15.75C12.9179 15.75 12.75 15.5821 12.75 15.375C12.75 15.1679 12.9179 15 13.125 15" stroke="#030EDD" stroke-width="1.5" stroke-linecap="round" stroke-linejoin="round"/>
<path d="M13.8547 19.6574C9.59454 21.2152 4.82302 19.626 2.34773 15.8249C-0.127556 12.0238 0.348726 7.01721 3.49633 3.75104C6.64393 0.484873 11.6295 -0.176128 15.5195 2.15698C19.4095 4.4901 21.1739 9.19962 19.7747 13.5144" stroke="#030EDD" stroke-width="1.5" stroke-linecap="round" stroke-linejoin="round"/>
<path fill-rule="evenodd" clip-rule="evenodd" d="M16.3555 16.3555L19.0065 23.2505L20.5975 20.5985L23.2495 19.0075L16.3555 16.3555V16.3555Z" stroke="#030EDD" stroke-width="1.5" stroke-linecap="round" stroke-linejoin="round"/>
<path d="M23.2497 23.2506L20.5977 20.5986" stroke="#030EDD" stroke-width="1.5" stroke-linecap="round" stroke-linejoin="round"/>
</svg>
