<?xml version="1.0" encoding="UTF-8"?><svg width="25" height="24" viewBox="0 0 25 24" fill="none" xmlns="http://www.w3.org/2000/svg">
<path fill-rule="evenodd" clip-rule="evenodd" d="M12.7557 6.26C12.7472 6.4483 12.6301 6.61453 12.4557 6.686C12.2644 6.77181 12.0452 6.76961 11.8557 6.68L9.75567 5.654L7.66367 6.68C7.47417 6.76961 7.25493 6.77181 7.06367 6.686C6.88909 6.61474 6.77194 6.44839 6.76367 6.26V0.75H12.7637L12.7557 6.26Z" stroke="#030EDD" stroke-width="1.5" stroke-linecap="round" stroke-linejoin="round"/>
<path d="M6.00588 17.25H1.71388C1.18131 17.2461 0.752553 16.8116 0.755879 16.279V1.721C0.752553 1.18843 1.18131 0.753853 1.71388 0.75H17.7999C18.0558 0.751586 18.3006 0.85478 18.4805 1.03688C18.6603 1.21898 18.7605 1.46506 18.7589 1.721V6" stroke="#030EDD" stroke-width="1.5" stroke-linecap="round" stroke-linejoin="round"/>
<path fill-rule="evenodd" clip-rule="evenodd" d="M15.0059 21C18.3196 21 21.0059 18.3137 21.0059 15C21.0059 11.6863 18.3196 9 15.0059 9C11.6922 9 9.00586 11.6863 9.00586 15C9.00586 18.3137 11.6922 21 15.0059 21Z" stroke="#030EDD" stroke-width="1.5" stroke-linecap="round" stroke-linejoin="round"/>
<path d="M23.256 23.2502L19.248 19.2422" stroke="#030EDD" stroke-width="1.5" stroke-linecap="round" stroke-linejoin="round"/>
<path d="M18.0059 12.75V16.5" stroke="#030EDD" stroke-width="1.5" stroke-linecap="round" stroke-linejoin="round"/>
<path d="M15.0059 12.75V16.5" stroke="#030EDD" stroke-width="1.5" stroke-linecap="round" stroke-linejoin="round"/>
<path d="M12.0059 12.75V13.5" stroke="#030EDD" stroke-width="1.5" stroke-linecap="round" stroke-linejoin="round"/>
<path d="M12.0059 15.75V16.5" stroke="#030EDD" stroke-width="1.5" stroke-linecap="round" stroke-linejoin="round"/>
</svg>
