<?xml version="1.0" encoding="UTF-8"?><svg width="24" height="24" viewBox="0 0 24 24" fill="none" xmlns="http://www.w3.org/2000/svg">
<path fill-rule="evenodd" clip-rule="evenodd" d="M3.41378 23.2504C4.8569 23.2504 6.02678 22.0805 6.02678 20.6374C6.02678 19.1943 4.8569 18.0244 3.41378 18.0244C1.97066 18.0244 0.800781 19.1943 0.800781 20.6374C0.800781 22.0805 1.97066 23.2504 3.41378 23.2504Z" stroke="#030EDD" stroke-width="1.5" stroke-linecap="round" stroke-linejoin="round"/>
<rect x="9.51172" y="18.1699" width="4.977" height="4.977" stroke="#030EDD" stroke-width="1.5" stroke-linecap="round" stroke-linejoin="round"/>
<path fill-rule="evenodd" clip-rule="evenodd" d="M23.1996 23.1469H17.2266L20.2126 17.6719L23.1996 23.1469V23.1469Z" stroke="#030EDD" stroke-width="1.5" stroke-linecap="round" stroke-linejoin="round"/>
<path fill-rule="evenodd" clip-rule="evenodd" d="M15.7322 4.58544C15.7354 2.72017 14.3613 1.1388 12.5138 0.881651C10.6664 0.6245 8.91264 1.7705 8.40635 3.56575C7.90005 5.36099 8.7966 7.25443 10.5062 8.00044V9.81144H13.4922V8.00044C14.8511 7.40832 15.7304 6.06774 15.7322 4.58544V4.58544Z" stroke="#030EDD" stroke-width="1.5" stroke-linecap="round" stroke-linejoin="round"/>
<path d="M3.53906 15.4323V12.9443H20.4611V15.4323" stroke="#030EDD" stroke-width="1.5" stroke-linecap="round" stroke-linejoin="round"/>
<path d="M19.7754 5.22852H21.2684" stroke="#030EDD" stroke-width="1.5" stroke-linecap="round" stroke-linejoin="round"/>
<path d="M19.4648 8.65332L20.5198 9.70932" stroke="#030EDD" stroke-width="1.5" stroke-linecap="round" stroke-linejoin="round"/>
<path d="M19.4648 1.806L20.5198 0.75" stroke="#030EDD" stroke-width="1.5" stroke-linecap="round" stroke-linejoin="round"/>
<path d="M4.22542 5.22852H2.73242" stroke="#030EDD" stroke-width="1.5" stroke-linecap="round" stroke-linejoin="round"/>
<path d="M4.53452 8.65332L3.47852 9.70932" stroke="#030EDD" stroke-width="1.5" stroke-linecap="round" stroke-linejoin="round"/>
<path d="M4.53452 1.806L3.47852 0.75" stroke="#030EDD" stroke-width="1.5" stroke-linecap="round" stroke-linejoin="round"/>
<path d="M12 9.81055V14.9345" stroke="#030EDD" stroke-width="1.5" stroke-linecap="round" stroke-linejoin="round"/>
</svg>
